<svg xmlns="http://www.w3.org/2000/svg" width="800" height="600" viewBox="0 0 800 600">
  <defs>
    <linearGradient id="bg" x1="0%" y1="0%" x2="100%" y2="100%">
      <stop offset="0%" style="stop-color:#0f172a"/>
      <stop offset="100%" style="stop-color:#1e293b"/>
    </linearGradient>
  </defs>
  <rect width="800" height="600" fill="url(#bg)"/>
  <circle cx="100" cy="100" r="80" fill="#a78bfa" opacity="0.05"/>
  <circle cx="680" cy="500" r="100" fill="#a78bfa" opacity="0.05"/>
  <g transform="translate(400,30)">
    <rect x="-100" y="-16" width="200" height="32" rx="16" fill="#a78bfa" opacity="0.15"/>
    <text text-anchor="middle" font-family="system-ui,sans-serif" font-size="13" font-weight="bold" fill="#a78bfa" dy="5">Google Pixel (谷歌)</text>
  </g>
  <g transform="translate(400,280)">
    <rect x="-100" y="-180" width="200" height="360" rx="30" fill="#1f2937" stroke="#a78bfa" stroke-width="2"/>
    <rect x="-85" y="-160" width="170" height="300" rx="15" fill="#111827"/>
    <rect x="-60" y="-130" width="120" height="40" rx="5" fill="#374151"/>
    <circle cx="-40" cy="-80" r="20" fill="#374151"/>
    <rect x="-10" y="-90" width="60" height="20" rx="3" fill="#374151"/>
    <circle cx="-40" cy="-30" r="15" fill="#374151"/>
    <rect x="-15" y="-40" width="50" height="15" rx="3" fill="#374151"/>
    <rect x="-15" y="140" width="30" height="8" rx="4" fill="#374151"/>
    <rect x="-40" y="-170" width="80" height="20" rx="10" fill="#111827"/>
  </g>
  <g transform="translate(400,90)">
    <circle cx="0" cy="0" r="55" fill="none" stroke="white" stroke-width="2.5" opacity="0.3"/>
    <circle cx="0" cy="0" r="45" fill="none" stroke="#a78bfa" stroke-width="1.5" stroke-dasharray="4,4" opacity="0.5"/>
    <text text-anchor="middle" font-family="system-ui,sans-serif" font-size="28" fill="white" dy="10">🔬</text>
    <g transform="translate(0, 80)">
      <rect x="-85" y="-16" width="170" height="32" rx="16" fill="#a78bfa" opacity="0.85"/>
      <text text-anchor="middle" font-family="system-ui,sans-serif" font-size="14" font-weight="bold" fill="white" dy="6">🔬 主板维修</text>
    </g>
  </g>
  <g transform="translate(400,565)">
    <text text-anchor="middle" font-family="system-ui,sans-serif" font-size="11" fill="#475569">主板维修 · Crazy维修 · 免费检测 · 30天质保</text>
  </g>
</svg>