<svg xmlns="http://www.w3.org/2000/svg" width="800" height="600" viewBox="0 0 800 600">
  <defs>
    <linearGradient id="bg" x1="0%" y1="0%" x2="100%" y2="100%">
      <stop offset="0%" style="stop-color:#0f172a;stop-opacity:1" />
      <stop offset="100%" style="stop-color:#1e293b;stop-opacity:1" />
    </linearGradient>
    <filter id="glow">
      <feGaussianBlur stdDeviation="3" result="blur"/>
      <feMerge><feMergeNode in="blur"/><feMergeNode in="SourceGraphic"/></feMerge>
    </filter>
  </defs>
  <rect width="800" height="600" fill="url(#bg)"/>
  
  <!-- 装饰圆点 -->
  <circle cx="100" cy="100" r="80" fill="#f87171" opacity="0.05"/>
  <circle cx="650" cy="500" r="120" fill="#f87171" opacity="0.05"/>
  <circle cx="700" cy="100" r="50" fill="#f87171" opacity="0.08"/>
  
  <!-- 品牌标识 -->
  <g transform="translate(400, 35)">
    <rect x="-100" y="-18" width="200" height="36" rx="18" fill="#f87171" opacity="0.2"/>
    <text text-anchor="middle" font-family="system-ui, -apple-system, sans-serif" font-size="14" font-weight="bold" fill="#f87171" dy="4">Huawei (华为)</text>
  </g>
  
  <!-- 设备主体 -->
  <g transform="translate(400,280)">
    <!-- 手机外壳 -->
    <rect x="-100" y="-180" width="200" height="360" rx="30" fill="#1f2937" stroke="#f87171" stroke-width="2"/>
    <!-- 屏幕 -->
    <rect x="-85" y="-160" width="170" height="300" rx="15" fill="#111827"/>
    <!-- 屏幕内容 -->
    <rect x="-60" y="-130" width="120" height="40" rx="5" fill="#374151"/>
    <circle cx="-40" cy="-80" r="20" fill="#374151"/>
    <rect x="-10" y="-90" width="60" height="20" rx="3" fill="#374151"/>
    <circle cx="-40" cy="-30" r="15" fill="#374151"/>
    <rect x="-15" y="-40" width="50" height="15" rx="3" fill="#374151"/>
    <!-- 底部按钮 -->
    <rect x="-15" y="140" width="30" height="8" rx="4" fill="#374151"/>
    <!-- 顶部刘海/灵动岛 -->
    <rect x="-40" y="-170" width="80" height="20" rx="10" fill="#111827"/>
  </g>
  
  <!-- 维修覆盖层 -->
  <g transform="translate(400,130)">
    <!-- 水滴 -->
    <path d="M0,-55 C20,-40 25,-15 0,5 C-25,-15 -20,-40 0,-55Z" fill="#60a5fa" opacity="0.8"/>
    <path d="M-40,-30 C-20,-25 -15,-5 -40,15 C-65,-5 -60,-25 -40,-30Z" fill="#60a5fa" opacity="0.5" transform="rotate(-30, -40, -10)"/>
    <path d="M40,-25 C55,-15 55,5 40,20 C25,5 25,-15 40,-25Z" fill="#60a5fa" opacity="0.5" transform="rotate(30, 40, 0)"/>
    <!-- 禁止符号 -->
    <circle cx="0" cy="-10" r="30" fill="none" stroke="#ef4444" stroke-width="3" opacity="0.8"/>
    <line x1="-20" y1="-30" x2="20" y2="10" stroke="#ef4444" stroke-width="3" opacity="0.8"/>
    <g transform="translate(0, 100)">
      <rect x="-80" y="-15" width="160" height="30" rx="8" fill="#f87171" opacity="0.9"/>
      <text text-anchor="middle" font-family="system-ui,sans-serif" font-size="13" font-weight="bold" fill="white" dy="5">💧 进水维修 Water</text>
    </g>
  </g>
  
  <!-- 底部信息 -->
  <g transform="translate(400, 565)">
    <text text-anchor="middle" font-family="system-ui, -apple-system, sans-serif" font-size="11" fill="#64748b">进水维修 · Water Damage Repair</text>
    <text text-anchor="middle" font-family="system-ui, -apple-system, sans-serif" font-size="9" fill="#475569" y="16">Crazy维修 · 免费检测 · 30天质保 · 2007年至今</text>
  </g>
</svg>