<svg xmlns="http://www.w3.org/2000/svg" width="800" height="600" viewBox="0 0 800 600">
  <defs><linearGradient id="bg" x1="0%" y1="0%" x2="100%" y2="100%"><stop offset="0%" style="stop-color:#0f172a"/><stop offset="100%" style="stop-color:#1e293b"/></linearGradient></defs>
  <rect width="800" height="600" fill="url(#bg)"/>
  <circle cx="100" cy="100" r="80" fill="#3b82f6" opacity="0.05"/>
  <circle cx="680" cy="500" r="100" fill="#3b82f6" opacity="0.05"/>
  <g transform="translate(400,30)"><rect x="-100" y="-16" width="200" height="32" rx="16" fill="#3b82f6" opacity="0.15"/><text text-anchor="middle" font-family="system-ui,sans-serif" font-size="13" font-weight="bold" fill="#3b82f6" dy="5">iPad (Apple)</text></g>
  <g transform="translate(400,280)"><rect x="-60" y="-130" width="120" height="220" rx="10" fill="#1e293b"/><rect x="-50" y="-120" width="100" height="200" rx="6" fill="#111827"/><path d="M-40,-80 Q0,-40 0,0 Q0,40 40,80" stroke="#3b82f6" stroke-width="2" fill="none" opacity="0.4"/><path d="M-20,-60 Q15,-20 15,20 Q15,55 35,60" stroke="#60a5fa" stroke-width="1.5" fill="none" opacity="0.3"/><circle cx="-25" cy="-40" r="4" fill="#3b82f6" opacity="0.5"/><circle cx="10" cy="10" r="3" fill="#3b82f6" opacity="0.5"/><circle cx="-5" cy="40" r="5" fill="#3b82f6" opacity="0.5"/></g>
  <g transform="translate(400,90)"><circle cx="0" cy="0" r="55" fill="none" stroke="white" stroke-width="2.5" opacity="0.3"/><circle cx="0" cy="0" r="45" fill="none" stroke="#3b82f6" stroke-width="1.5" stroke-dasharray="4,4" opacity="0.5"/><text text-anchor="middle" font-family="system-ui,sans-serif" font-size="32" fill="white" dy="10">💧</text><g transform="translate(0,80)"><rect x="-85" y="-16" width="170" height="32" rx="16" fill="#3b82f6" opacity="0.85"/><text text-anchor="middle" font-family="system-ui,sans-serif" font-size="14" font-weight="bold" fill="white" dy="6">💧 进水维修</text></g></g>
  <g transform="translate(400,565)"><text text-anchor="middle" font-family="system-ui,sans-serif" font-size="11" fill="#475569">进水维修 · iPad维修 · Crazy维修 · 免费检测 · 30天质保</text></g>
</svg>
