<svg xmlns="http://www.w3.org/2000/svg" width="800" height="600" viewBox="0 0 800 600">
  <defs>
    <linearGradient id="bg" x1="0%" y1="0%" x2="100%" y2="100%">
      <stop offset="0%" style="stop-color:#0f172a"/>
      <stop offset="100%" style="stop-color:#1e293b"/>
    </linearGradient>
  </defs>
  <rect width="800" height="600" fill="url(#bg)"/>
  <circle cx="100" cy="100" r="80" fill="#f87171" opacity="0.05"/>
  <circle cx="680" cy="500" r="100" fill="#f87171" opacity="0.05"/>
  <g transform="translate(400,30)">
    <rect x="-100" y="-16" width="200" height="32" rx="16" fill="#f87171" opacity="0.15"/>
    <text text-anchor="middle" font-family="system-ui,sans-serif" font-size="13" font-weight="bold" fill="#f87171" dy="5">MSI (微星)</text>
  </g>
  <g transform="translate(400,280)">
    <rect x="-140" y="-150" width="280" height="200" rx="12" fill="#1f2937" stroke="#f87171" stroke-width="2"/>
    <rect x="-125" y="-135" width="250" height="170" rx="8" fill="#111827"/>
    <rect x="-90" y="-100" width="180" height="30" rx="5" fill="#374151"/>
    <rect x="-90" y="-55" width="80" height="15" rx="3" fill="#374151"/>
    <rect x="-90" y="-30" width="120" height="15" rx="3" fill="#374151"/>
    <rect x="-90" y="-5" width="60" height="15" rx="3" fill="#374151"/>
    <rect x="-130" y="50" width="260" height="12" rx="4" fill="#374151"/>
    <rect x="-150" y="58" width="300" height="150" rx="10" fill="#1f2937" stroke="#f87171" stroke-width="1.5"/>
    <rect x="-130" y="75" width="260" height="110" rx="6" fill="#111827"/>
    <rect x="-120" y="80" width="25" height="13" rx="2" fill="#374151"/><rect x="-90" y="80" width="25" height="13" rx="2" fill="#374151"/><rect x="-60" y="80" width="25" height="13" rx="2" fill="#374151"/><rect x="-30" y="80" width="25" height="13" rx="2" fill="#374151"/><rect x="0" y="80" width="25" height="13" rx="2" fill="#374151"/><rect x="30" y="80" width="25" height="13" rx="2" fill="#374151"/><rect x="60" y="80" width="25" height="13" rx="2" fill="#374151"/><rect x="-120" y="98" width="25" height="13" rx="2" fill="#374151"/><rect x="-90" y="98" width="25" height="13" rx="2" fill="#374151"/><rect x="-60" y="98" width="25" height="13" rx="2" fill="#374151"/><rect x="-30" y="98" width="25" height="13" rx="2" fill="#374151"/><rect x="0" y="98" width="25" height="13" rx="2" fill="#374151"/><rect x="30" y="98" width="25" height="13" rx="2" fill="#374151"/><rect x="60" y="98" width="25" height="13" rx="2" fill="#374151"/><rect x="-120" y="116" width="25" height="13" rx="2" fill="#374151"/><rect x="-90" y="116" width="25" height="13" rx="2" fill="#374151"/><rect x="-60" y="116" width="25" height="13" rx="2" fill="#374151"/><rect x="-30" y="116" width="25" height="13" rx="2" fill="#374151"/><rect x="0" y="116" width="25" height="13" rx="2" fill="#374151"/><rect x="30" y="116" width="25" height="13" rx="2" fill="#374151"/><rect x="60" y="116" width="25" height="13" rx="2" fill="#374151"/><rect x="-120" y="134" width="25" height="13" rx="2" fill="#374151"/><rect x="-90" y="134" width="25" height="13" rx="2" fill="#374151"/><rect x="-60" y="134" width="25" height="13" rx="2" fill="#374151"/><rect x="-30" y="134" width="25" height="13" rx="2" fill="#374151"/><rect x="0" y="134" width="25" height="13" rx="2" fill="#374151"/><rect x="30" y="134" width="25" height="13" rx="2" fill="#374151"/><rect x="60" y="134" width="25" height="13" rx="2" fill="#374151"/>
    <rect x="-40" y="155" width="80" height="40" rx="5" fill="#374151"/>
  </g>
  <g transform="translate(400,90)">
    <circle cx="0" cy="0" r="55" fill="none" stroke="white" stroke-width="2.5" opacity="0.3"/>
    <circle cx="0" cy="0" r="45" fill="none" stroke="#f87171" stroke-width="1.5" stroke-dasharray="4,4" opacity="0.5"/>
    <text text-anchor="middle" font-family="system-ui,sans-serif" font-size="28" fill="white" dy="10">🧹</text>
    <g transform="translate(0, 80)">
      <rect x="-85" y="-16" width="170" height="32" rx="16" fill="#f87171" opacity="0.85"/>
      <text text-anchor="middle" font-family="system-ui,sans-serif" font-size="14" font-weight="bold" fill="white" dy="6">🧹 清灰</text>
    </g>
  </g>
  <g transform="translate(400,565)">
    <text text-anchor="middle" font-family="system-ui,sans-serif" font-size="11" fill="#475569">清灰换硅脂 · Crazy维修 · 免费检测 · 30天质保</text>
  </g>
</svg>