<svg xmlns="http://www.w3.org/2000/svg" width="800" height="600" viewBox="0 0 800 600">
  <defs>
    <linearGradient id="bg" x1="0%" y1="0%" x2="100%" y2="100%">
      <stop offset="0%" style="stop-color:#0f172a;stop-opacity:1" />
      <stop offset="100%" style="stop-color:#1e293b;stop-opacity:1" />
    </linearGradient>
    <filter id="glow">
      <feGaussianBlur stdDeviation="3" result="blur"/>
      <feMerge><feMergeNode in="blur"/><feMergeNode in="SourceGraphic"/></feMerge>
    </filter>
  </defs>
  <rect width="800" height="600" fill="url(#bg)"/>
  
  <!-- 装饰圆点 -->
  <circle cx="100" cy="100" r="80" fill="#f97316" opacity="0.05"/>
  <circle cx="650" cy="500" r="120" fill="#f97316" opacity="0.05"/>
  <circle cx="700" cy="100" r="50" fill="#f97316" opacity="0.08"/>
  
  <!-- 品牌标识 -->
  <g transform="translate(400, 35)">
    <rect x="-100" y="-18" width="200" height="36" rx="18" fill="#f97316" opacity="0.2"/>
    <text text-anchor="middle" font-family="system-ui, -apple-system, sans-serif" font-size="14" font-weight="bold" fill="#f97316" dy="4">Xiaomi (小米)</text>
  </g>
  
  <!-- 设备主体 -->
  <g transform="translate(400,280)">
    <!-- 手机外壳 -->
    <rect x="-100" y="-180" width="200" height="360" rx="30" fill="#1f2937" stroke="#f97316" stroke-width="2"/>
    <!-- 屏幕 -->
    <rect x="-85" y="-160" width="170" height="300" rx="15" fill="#111827"/>
    <!-- 屏幕内容 -->
    <rect x="-60" y="-130" width="120" height="40" rx="5" fill="#374151"/>
    <circle cx="-40" cy="-80" r="20" fill="#374151"/>
    <rect x="-10" y="-90" width="60" height="20" rx="3" fill="#374151"/>
    <circle cx="-40" cy="-30" r="15" fill="#374151"/>
    <rect x="-15" y="-40" width="50" height="15" rx="3" fill="#374151"/>
    <!-- 底部按钮 -->
    <rect x="-15" y="140" width="30" height="8" rx="4" fill="#374151"/>
    <!-- 顶部刘海/灵动岛 -->
    <rect x="-40" y="-170" width="80" height="20" rx="10" fill="#111827"/>
  </g>
  
  <!-- 维修覆盖层 -->
  <g transform="translate(400,130)">
    <!-- 电池图标 -->
    <rect x="-30" y="-45" width="60" height="40" rx="5" fill="none" stroke="white" stroke-width="2.5"/>
    <rect x="30" y="-35" width="8" height="20" rx="3" fill="white"/>
    <!-- 电池电量填充 -->
    <rect x="-22" y="-37" width="44" height="24" rx="3" fill="#f97316" opacity="0.7"/>
    <!-- 闪电符号 -->
    <polygon points="-8,-20 2,-20 -4,-8 6,-8 -2,10" fill="white" opacity="0.8"/>
    <!-- 工具 -->
    <g transform="translate(-60, 60)">
      <rect x="-20" y="-10" width="40" height="20" rx="5" fill="none" stroke="white" stroke-width="1.5"/>
      <text text-anchor="middle" font-family="system-ui,sans-serif" font-size="10" fill="white" dy="4">🔧</text>
    </g>
    <g transform="translate(0, 100)">
      <rect x="-80" y="-15" width="160" height="30" rx="8" fill="#f97316" opacity="0.9"/>
      <text text-anchor="middle" font-family="system-ui,sans-serif" font-size="13" font-weight="bold" fill="white" dy="5">🔋 电池更换 Battery</text>
    </g>
  </g>
  
  <!-- 底部信息 -->
  <g transform="translate(400, 565)">
    <text text-anchor="middle" font-family="system-ui, -apple-system, sans-serif" font-size="11" fill="#64748b">电池更换 · Battery Replacement</text>
    <text text-anchor="middle" font-family="system-ui, -apple-system, sans-serif" font-size="9" fill="#475569" y="16">Crazy维修 · 免费检测 · 30天质保 · 2007年至今</text>
  </g>
</svg>